<svg class="animated" id="freepik_stories-pirate-boat" xmlns="http://www.w3.org/2000/svg" viewBox="0 0 500 500" version="1.1" xmlns:xlink="http://www.w3.org/1999/xlink" xmlns:svgjs="http://svgjs.com/svgjs"><style>svg#freepik_stories-pirate-boat:not(.animated) .animable {opacity: 0;}svg#freepik_stories-pirate-boat.animated #freepik--Birds--inject-6 {animation: 1.5s Infinite  linear floating;animation-delay: 0s;}svg#freepik_stories-pirate-boat.animated #freepik--Boat--inject-6 {animation: 2.2s 1 forwards ease-out slideLeft;animation-delay: 0s;}            @keyframes floating {                0% {                    opacity: 1;                    transform: translateY(0px);                }                50% {                    transform: translateY(-10px);                }                100% {                    opacity: 1;                    transform: translateY(0px);                }            }                    @keyframes slideLeft {                0% {                    opacity: 0;                    transform: translateX(-30px);                }                100% {                    opacity: 1;                    transform: translateX(0);                }            }        </style><g id="freepik--background-complete--inject-6" class="animable" style="transform-origin: 250px 218.12px;"><path d="M439.91,222.62c-1.93-1.46-4.76-1.63-6.85-.4-2.78-5.61-10.52-8.09-16.03-5.13-1.44-6.05-7.4-10.69-13.61-10.62-6.22,.07-12.06,4.86-13.35,10.94-.21,.97-.34,2.02-1.03,2.73-1.12,1.15-3,.76-4.6,.64-5.03-.39-10.1,3.14-11.47,8l69.32-.25c.61-2.35-.44-4.45-2.37-5.91Z" style="fill: rgb(240, 240, 240); transform-origin: 407.717px 217.625px;" id="el4s2wugu2mar" class="animable"></path><path d="M344.16,155.51c-1.27-.96-3.13-1.07-4.51-.26-1.83-3.69-6.92-5.32-10.55-3.38-.95-3.98-4.87-7.04-8.96-6.99-4.09,.05-7.94,3.2-8.79,7.2-.14,.64-.22,1.33-.68,1.8-.74,.75-1.97,.5-3.03,.42-3.31-.26-6.65,2.07-7.55,5.27l45.63-.17c.4-1.54-.29-2.93-1.56-3.89Z" style="fill: rgb(240, 240, 240); transform-origin: 322.962px 152.225px;" id="elt5m9hzby2w9" class="animable"></path><path d="M466.83,95.76c-1.47-1.11-3.62-1.24-5.21-.31-2.11-4.27-7.99-6.15-12.19-3.9-1.09-4.6-5.62-8.13-10.35-8.07-4.72,.06-9.17,3.7-10.15,8.32-.16,.73-.26,1.54-.78,2.08-.85,.87-2.28,.58-3.49,.48-3.83-.3-7.68,2.39-8.72,6.08l52.69-.19c.46-1.78-.33-3.38-1.8-4.49Z" style="fill: rgb(224, 224, 224); transform-origin: 442.35px 91.9596px;" id="el5dkoicygdw2" class="animable"></path><path d="M116.13,127.56c-2.36-1.78-5.81-1.99-8.36-.49-3.39-6.85-12.84-9.87-19.57-6.26-1.76-7.38-9.03-13.06-16.62-12.96-7.59,.09-14.72,5.94-16.3,13.36-.25,1.18-.42,2.47-1.26,3.33-1.37,1.4-3.66,.93-5.61,.78-6.14-.48-12.33,3.83-14,9.77l84.62-.31c.74-2.87-.53-5.43-2.9-7.21Z" style="fill: rgb(224, 224, 224); transform-origin: 76.8252px 121.469px;" id="elyoisfapoyyd" class="animable"></path><path d="M240.76,86.48c-1.72-1.3-4.23-1.45-6.09-.36-2.47-4.99-9.35-7.19-14.26-4.56-1.28-5.38-6.58-9.51-12.11-9.45-5.53,.07-10.73,4.33-11.88,9.74-.18,.86-.3,1.8-.92,2.43-1,1.02-2.67,.68-4.09,.57-4.48-.35-8.98,2.79-10.2,7.12l61.66-.22c.54-2.09-.39-3.95-2.11-5.26Z" style="fill: rgb(240, 240, 240); transform-origin: 212.117px 82.0397px;" id="el8yv5btgs2ba" class="animable"></path><path d="M84.18,234.6c-1.47-1.11-3.62-1.24-5.21-.31-2.11-4.27-7.99-6.15-12.19-3.9-1.09-4.6-5.62-8.13-10.35-8.07-4.72,.06-9.17,3.7-10.15,8.32-.16,.73-.26,1.54-.78,2.08-.85,.87-2.28,.58-3.49,.48-3.83-.3-7.68,2.39-8.72,6.08l52.69-.19c.46-1.78-.33-3.38-1.8-4.49Z" style="fill: rgb(224, 224, 224); transform-origin: 59.7004px 230.8px;" id="el9hfme3jq989" class="animable"></path><path d="M378.02,43.63c-1.47-1.11-3.62-1.24-5.21-.31-2.11-4.27-7.99-6.15-12.19-3.9-1.09-4.6-5.62-8.13-10.35-8.07-4.72,.06-9.17,3.7-10.15,8.32-.16,.73-.26,1.54-.78,2.08-.85,.87-2.28,.58-3.49,.48-3.83-.3-7.68,2.39-8.72,6.08l52.69-.19c.46-1.78-.33-3.38-1.8-4.49Z" style="fill: rgb(224, 224, 224); transform-origin: 353.54px 39.8296px;" id="elp8cfbdwl1wo" class="animable"></path><g id="elkennjm5g59q" class="animable" style="transform-origin: 250px 224.955px;"><g id="elqds68st5tob" class="animable" style="transform-origin: 250px 213.175px;"><g id="el2yye6tiwd51" class="animable" style="transform-origin: 249.335px 182.515px;"><path d="M443.92,320.01h-180.75c-3.23,0-5.86-2.63-5.86-5.86V50.88c0-3.23,2.63-5.86,5.86-5.86h180.75c3.23,0,5.86,2.63,5.86,5.86V314.15c0,3.23-2.63,5.86-5.86,5.86ZM263.17,45.27c-3.09,0-5.61,2.52-5.61,5.61V314.15c0,3.09,2.52,5.61,5.61,5.61h180.75c3.09,0,5.61-2.52,5.61-5.61V50.88c0-3.09-2.52-5.61-5.61-5.61h-180.75Z" style="fill: rgb(224, 224, 224); transform-origin: 353.545px 182.515px;" id="elpg6j11cgty" class="animable"></path><path d="M235.49,320.01H54.75c-3.23,0-5.86-2.63-5.86-5.86V50.88c0-3.23,2.63-5.86,5.86-5.86H235.49c3.23,0,5.86,2.63,5.86,5.86V314.15c0,3.23-2.63,5.86-5.86,5.86ZM54.75,45.27c-3.09,0-5.61,2.52-5.61,5.61V314.15c0,3.09,2.52,5.61,5.61,5.61H235.49c3.09,0,5.61-2.52,5.61-5.61V50.88c0-3.09-2.52-5.61-5.61-5.61H54.75Z" style="fill: rgb(224, 224, 224); transform-origin: 145.12px 182.515px;" id="el4k71ple2l7f" class="animable"></path></g><rect x="0" y="381.08" width="500" height=".25" style="fill: rgb(224, 224, 224); transform-origin: 250px 381.205px;" id="elyiv7lybebdt" class="animable"></rect></g><rect x="51.67" y="395.35" width="16.06" height=".25" style="fill: rgb(224, 224, 224); transform-origin: 59.7px 395.475px;" id="elvxozdspj5k" class="animable"></rect><rect x="170.35" y="392.64" width="53.53" height=".25" style="fill: rgb(224, 224, 224); transform-origin: 197.115px 392.765px;" id="el8tja6k502qo" class="animable"></rect><rect x="68.73" y="404.64" width="36.25" height=".25" style="fill: rgb(224, 224, 224); transform-origin: 86.855px 404.765px;" id="elbifeovg5gkc" class="animable"></rect><rect x="378.35" y="392.51" width="43.19" height=".25" style="fill: rgb(224, 224, 224); transform-origin: 399.945px 392.635px;" id="elyltcd2op4c9" class="animable"></rect><rect x="430.45" y="392.51" width="6.33" height=".25" style="fill: rgb(224, 224, 224); transform-origin: 433.615px 392.635px;" id="el04aellitkegj" class="animable"></rect><rect x="316.21" y="398.74" width="53.89" height=".25" style="fill: rgb(224, 224, 224); transform-origin: 343.155px 398.865px;" id="eljsycn2gmhzb" class="animable"></rect></g><path d="M166.35,53.97c-1.45-1.1-3.57-1.22-5.14-.3-2.08-4.21-7.89-6.07-12.04-3.85-1.08-4.54-5.55-8.03-10.22-7.97-4.67,.06-9.05,3.65-10.03,8.22-.15,.73-.26,1.52-.78,2.05-.84,.86-2.25,.57-3.45,.48-3.78-.29-7.58,2.36-8.61,6.01l52.04-.19c.46-1.76-.33-3.34-1.78-4.44Z" style="fill: rgb(240, 240, 240); transform-origin: 142.165px 50.2296px;" id="eliaez8ieh79" class="animable"></path><g id="elvgoqn7i4cx" class="animable" style="transform-origin: 251.72px 303.78px;"><path d="M239.73,284.64c-32.49,3.38-58.83,19.18-81.76,35.13-54.13,37.63-68.31,15.21-106.3,61l395.22,.32c-25.54-16.86-48.86-34.33-74.4-51.19-18.43-12.16-37.07-24.44-59.13-33.42-22.06-8.98-48.18-14.49-73.63-11.84" style="fill: rgb(224, 224, 224); transform-origin: 249.28px 332.531px;" id="elz5cepvan4no" class="animable"></path><path d="M399.74,283.26c.02-3.76-1.23-7.41-3.56-10.37-.81,1.09-2.04,1.78-3.38,1.91,.92-1.03,1.6-2.25,2.01-3.56-1.67-1.79-3.63-3.25-5.66-4.27,6.13,1.01,12.38,1.11,18.56,.26-6.33-6.51-14.77-8.53-20.45-6.31,2.08-1.97,4.07-4.02,5.96-6.18-.58-.33-1.19-.61-1.82-.85,.83-.12,1.67-.09,2.49,.1,.71-.79,1.45-1.62,2.21-2.48-8.61,.48-15.81,5.92-14.73,11.71-3.58-6.87-15.26-5.98-23.91,1.03l4.16,.44c.59-.87,1.35-1.62,2.22-2.21-.38,.74-.7,1.51-.97,2.29,3.83,.43,7.67,.68,11.52,.75-6.47,2.51-12.02,10.7-12.35,21.02,6.78-4.67,12.68-10.49,17.46-17.16-1.19,2.85-1.59,6.37-1.06,9.79,.41,.13,.84,.23,1.27,.29-.38,.14-.76,.26-1.16,.35,.28,1.45,.74,2.86,1.37,4.2,.62,.36,1.28,.64,1.97,.86-.47,.11-.94,.17-1.42,.19,.79,1.39,1.81,2.63,3.01,3.67,2.62-3.6,3.17-7.95,2.72-12.01,6.15,26.33-3.42,62.28-3.42,62.28l7.87,1.26s8.51-36.57-1.55-62.6c2.78,2.86,6.34,5.12,10.62,5.58Zm-17.55-17.84h0Z" style="fill: rgb(224, 224, 224); transform-origin: 382.585px 295.885px;" id="elnjfmti9gh1k" class="animable"></path><path d="M300.24,251.71c-.47-3.05-1.96-5.84-4.22-7.93-.51,.98-1.42,1.7-2.49,1.98,.61-.95,1.01-2.03,1.16-3.15-1.58-1.23-3.36-2.16-5.14-2.73,5.09,.02,10.17-.71,15.06-2.2-5.97-4.45-13.07-4.99-17.37-2.46,1.43-1.86,2.78-3.79,4.03-5.77-.51-.19-1.04-.34-1.58-.45,.66-.21,1.34-.29,2.03-.24,.48-.73,.97-1.5,1.47-2.29-6.91,1.5-12.03,6.84-10.41,11.39-3.79-5.1-13.14-2.86-19.23,3.94l3.42-.18c.37-.78,.88-1.49,1.51-2.08-.21,.65-.37,1.31-.49,1.98,3.16-.15,6.3-.44,9.42-.89-4.91,2.87-8.34,10.22-7.28,18.62,4.89-4.66,8.91-10.13,11.91-16.16-.59,2.46-.46,5.37,.41,8.07,.35,.05,.71,.08,1.06,.07-.29,.17-.58,.31-.89,.43,.41,1.14,.97,2.22,1.65,3.23,.55,.21,1.12,.36,1.71,.44-.36,.15-.74,.26-1.12,.34,.82,1.02,1.8,1.89,2.91,2.58,1.66-3.25,1.54-6.85,.64-10.08,8.39,20.52,5.31,50.88,5.31,50.88h6.54s2.15-30.71-9.37-50.49c2.62,1.96,5.79,3.32,9.32,3.14Zm-16.53-12.17h0Z" style="fill: rgb(224, 224, 224); transform-origin: 284.08px 262.76px;" id="el4gc57xyj2km" class="animable"></path><path d="M424.74,312c-16.43,14.65-23.62,43.39-23.62,43.39l5.98,1.95s6.23-28.68,20.02-44.95c-1.78,2.69-2.96,5.94-2.42,9.41,1.22-.3,2.38-.8,3.44-1.49-.33-.18-.64-.4-.93-.64,.56,.09,1.13,.13,1.69,.1,.92-.71,1.76-1.54,2.47-2.46-.25-.2-.48-.42-.69-.66,.32,.11,.66,.2,.99,.25,1.61-2.21,2.59-4.83,2.78-7.25,.95,6.41,3,12.61,6.08,18.33,3.48-7.37,2.54-15.11-1.1-19.2,2.73,1.34,5.51,2.55,8.35,3.62,.1-.65,.14-1.3,.14-1.96,.4,.73,.66,1.52,.77,2.35l3.08,1.19c-3.54-8.03-11.42-12.87-16.41-9.33,2.84-3.68-.25-10.09-6.12-13.52,.22,.88,.44,1.72,.66,2.54,.64,.16,1.25,.44,1.78,.82-.52-.06-1.05-.08-1.58-.06,.55,2.19,1.22,4.35,1.96,6.48-3.18-3.6-9.84-5.22-16.62-2.93,4.03,2.82,8.46,5,13.12,6.5-1.79-.02-3.69,.31-5.51,.96-.19,1.07-.15,2.17,.13,3.22-.9-.57-1.51-1.5-1.69-2.56-2.69,1.24-4.89,3.35-6.23,6,3.17,1.22,6.48,.91,9.46-.09Zm9.29-6.12h0Z" style="fill: rgb(224, 224, 224); transform-origin: 426.445px 324.235px;" id="el4orh7f2hvvc" class="animable"></path><path d="M209.21,318.28c-.13-2.46-1.1-4.81-2.74-6.65-.49,.74-1.26,1.25-2.14,1.38,.56-.71,.96-1.54,1.17-2.42-1.17-1.11-2.51-1.99-3.88-2.58,4.06,.42,8.16,.23,12.18-.57-4.41-4.01-10.02-5-13.65-3.32,1.28-1.37,2.51-2.8,3.66-4.28-.39-.19-.8-.35-1.22-.48,.54-.11,1.09-.12,1.64-.03,.44-.55,.89-1.12,1.35-1.71-5.62,.66-10.13,4.51-9.19,8.26-2.62-4.36-10.24-3.31-15.63,1.63l2.74,.12c.35-.59,.82-1.12,1.37-1.54-.22,.5-.4,1.02-.55,1.54,2.53,.13,5.06,.14,7.58,.03-4.14,1.9-7.45,7.49-7.26,14.27,4.26-3.33,7.89-7.38,10.76-11.94-.67,1.91-.79,4.24-.3,6.46,.28,.07,.56,.12,.84,.14-.24,.11-.49,.2-.75,.27,.24,.94,.6,1.85,1.06,2.7,.42,.21,.87,.37,1.32,.49-.3,.09-.61,.15-.92,.18,.57,.88,1.29,1.65,2.12,2.29,1.57-2.46,1.76-5.34,1.3-7.98,5.08,17.01,.23,40.96,.23,40.96l5.21,.51s4.13-24.31-3.5-40.98c1.94,1.76,4.36,3.1,7.18,3.23Zm-12.21-11h0Z" style="fill: rgb(224, 224, 224); transform-origin: 197.28px 326.815px;" id="el1zea78c5w7a" class="animable"></path></g></g><g id="freepik--Shadow--inject-6" class="animable" style="transform-origin: 250px 447.33px;"><path d="M458.88,447.33c0,3.39-93.52,6.13-208.88,6.13s-208.88-2.75-208.88-6.13,93.52-6.13,208.88-6.13,208.88,2.75,208.88,6.13Z" style="fill: rgb(245, 245, 245); transform-origin: 250px 447.33px;" id="elmjz9t09az29" class="animable"></path></g><g id="freepik--Birds--inject-6" class="animable" style="transform-origin: 417.11px 159.11px;"><g id="elzqaanw15rm" class="animable" style="transform-origin: 417.11px 159.11px;"><path d="M402.78,177.28c4.19-4.03,11.37-3.8,15.47,.28h-.7c1.98-1.97,4.8-3.05,7.57-2.86,2.76,.17,5.38,1.58,6.97,3.73-3.69-3.82-10.16-3.95-13.83-.15-.19,.19-.5,.2-.7,0-3.88-3.83-10.37-4.19-14.78-1h0Z" style="fill: rgb(38, 50, 56); transform-origin: 417.435px 176.403px;" id="el7udyuuvlo39" class="animable"></path><path d="M427.7,155.83c2.02-2.24,5.8-2.15,7.91-.04h-.7c2.01-2.13,5.92-1.89,7.44,.61-1.94-1.72-4.96-1.72-6.74,.1-.19,.19-.5,.2-.7,0-1.88-1.86-4.98-2.06-7.22-.68h0Z" style="fill: rgb(38, 50, 56); transform-origin: 435.02px 155.412px;" id="eldrteoijj45" class="animable"></path><path d="M391.87,141.2c5.13,2.32,9.54,6.13,12.76,10.74l-.88,.13c1.71-5.09,5.28-9.62,9.94-12.28-4.14,3.25-7.34,7.62-8.99,12.6-.11,.38-.67,.46-.88,.13-3.16-4.53-7.28-8.35-11.94-11.31h0Z" style="fill: rgb(38, 50, 56); transform-origin: 402.78px 146.259px;" id="elvrz2p03jeop" class="animable"></path></g></g><g id="freepik--Sun--inject-6" class="animable" style="transform-origin: 338.47px 98.405px;"><g id="freepik--freepik--Sun--inject-5--inject-6" class="animable" style="transform-origin: 338.47px 98.405px;"><g id="elurszmoyp2ok" class="animable" style="transform-origin: 338.47px 98.405px;"><path d="M363.93,98.41c0,2.15-3.11,3.86-3.65,5.85-.53,1.98,1.27,5.09,.24,6.88-1.04,1.79-4.61,1.76-6.09,3.23s-1.41,5.04-3.23,6.09c-1.82,1.05-4.83-.78-6.88-.24-2.05,.55-3.7,3.65-5.85,3.65s-3.86-3.11-5.85-3.65c-1.98-.53-5.08,1.28-6.88,.24-1.8-1.04-1.75-4.61-3.23-6.09-1.48-1.48-5.03-1.4-6.09-3.23-1.06-1.83,.78-4.85,.24-6.9s-3.65-3.69-3.65-5.85,3.11-3.86,3.65-5.84-1.27-5.09-.24-6.88c1.04-1.79,4.61-1.76,6.09-3.24s1.41-5.03,3.23-6.09c1.82-1.06,4.83,.79,6.88,.24s3.7-3.64,5.85-3.64,3.86,3.11,5.85,3.64c1.98,.52,5.08-1.27,6.88-.24,1.8,1.04,1.75,4.61,3.23,6.09,1.48,1.48,5.03,1.41,6.09,3.24,1.06,1.83-.78,4.83-.24,6.88,.55,2.05,3.65,3.71,3.65,5.85Z" style="fill: #00ADB5; transform-origin: 338.47px 98.405px;" id="elsqkluuyat2f" class="animable"></path><path d="M363.93,98.41c0,2.15-3.11,3.86-3.65,5.85-.53,1.98,1.27,5.09,.24,6.88-1.04,1.79-4.61,1.76-6.09,3.23s-1.41,5.04-3.23,6.09c-1.82,1.05-4.83-.78-6.88-.24-2.05,.55-3.7,3.65-5.85,3.65s-3.86-3.11-5.85-3.65c-1.98-.53-5.08,1.28-6.88,.24-1.8-1.04-1.75-4.61-3.23-6.09-1.48-1.48-5.03-1.4-6.09-3.23-1.06-1.83,.78-4.85,.24-6.9s-3.65-3.69-3.65-5.85,3.11-3.86,3.65-5.84-1.27-5.09-.24-6.88c1.04-1.79,4.61-1.76,6.09-3.24s1.41-5.03,3.23-6.09c1.82-1.06,4.83,.79,6.88,.24s3.7-3.64,5.85-3.64,3.86,3.11,5.85,3.64c1.98,.52,5.08-1.27,6.88-.24,1.8,1.04,1.75,4.61,3.23,6.09,1.48,1.48,5.03,1.41,6.09,3.24,1.06,1.83-.78,4.83-.24,6.88,.55,2.05,3.65,3.71,3.65,5.85Z" style="fill: rgb(255, 255, 255); transform-origin: 338.47px 98.405px;" id="elvetlpnpu6w" class="animable"></path></g><g id="elcpjk9exv5kw"><circle cx="338.47" cy="98.41" r="18.19" style="fill: #00ADB5; transform-origin: 338.47px 98.41px; transform: rotate(-84.1deg);" class="animable" id="eldgd3jxyo31q"></circle></g></g></g><g id="freepik--Water--inject-6" class="animable" style="transform-origin: 253.295px 459.765px;"><g id="elrwzs2wzz0o" class="animable" style="transform-origin: 237.37px 459.765px;"><path d="M150.26,441.95c-2.31-.37-7.41,1.32-9.55,2.36-2.13,1.04-3.68,4.04-2.55,6.31,.92,1.85,3.05,2.38,4.92,2.71l32.79,5.91c-6.06,2.62-12.11,5.24-18.17,7.86-.8,.35-1.64,.72-2.21,1.43-1.36,1.7-.53,4.61,1.14,5.93,1.67,1.32,3.84,1.48,5.89,1.59,27.92,1.53,55.88,2.09,83.83,1.66,9.1-.14,18.33-.4,27.05-3.29,2.49-.83,5.32-2.38,5.63-5.26,.41-3.81-3.85-6.04-7.29-6.18-3.44-.14-7.44,.3-9.76-2.54,8.1-4.1,17.32-4.38,26.21-3.92,8.89,.46,17.85,1.58,26.64,.02s17.63-6.3,22.13-14.86l-186.72,.27Z" style="fill: #00ADB5; transform-origin: 237.37px 459.765px;" id="eln6spw366ij" class="animable"></path><g id="elc00wcgsclew"><g style="opacity: 0.8; transform-origin: 237.37px 459.765px;" class="animable" id="el2wxzfedfxs7"><path d="M150.26,441.95c-2.31-.37-7.41,1.32-9.55,2.36-2.13,1.04-3.68,4.04-2.55,6.31,.92,1.85,3.05,2.38,4.92,2.71l32.79,5.91c-6.06,2.62-12.11,5.24-18.17,7.86-.8,.35-1.64,.72-2.21,1.43-1.36,1.7-.53,4.61,1.14,5.93,1.67,1.32,3.84,1.48,5.89,1.59,27.92,1.53,55.88,2.09,83.83,1.66,9.1-.14,18.33-.4,27.05-3.29,2.49-.83,5.32-2.38,5.63-5.26,.41-3.81-3.85-6.04-7.29-6.18-3.44-.14-7.44,.3-9.76-2.54,8.1-4.1,17.32-4.38,26.21-3.92,8.89,.46,17.85,1.58,26.64,.02s17.63-6.3,22.13-14.86l-186.72,.27Z" style="fill: rgb(255, 255, 255); transform-origin: 237.37px 459.765px;" id="ellxk4sy9kid" class="animable"></path></g></g></g><g id="elt891b108jfg" class="animable" style="transform-origin: 253.295px 448.995px;"><g id="elqok423nw3o" class="animable" style="transform-origin: 243.2px 449.025px;"><path d="M375.07,442.26H111.33c-.14,0-.25-.11-.25-.25s.11-.25,.25-.25H375.07c.14,0,.25,.11,.25,.25s-.11,.25-.25,.25Z" style="fill: rgb(38, 50, 56); transform-origin: 243.2px 442.01px;" id="el8t3ldgfp6bm" class="animable"></path><path d="M245.58,450.44h-97.1c-.14,0-.25-.11-.25-.25s.11-.25,.25-.25h97.1c.14,0,.25,.11,.25,.25s-.11,.25-.25,.25Z" style="fill: rgb(38, 50, 56); transform-origin: 197.03px 450.19px;" id="el7lnmcopkfja" class="animable"></path><path d="M316.2,450.44h-45.17c-.14,0-.25-.11-.25-.25s.11-.25,.25-.25h45.17c.14,0,.25,.11,.25,.25s-.11,.25-.25,.25Z" style="fill: rgb(38, 50, 56); transform-origin: 293.615px 450.19px;" id="ela1uisa5l1fw" class="animable"></path><path d="M217.14,456.29h-38.1c-.14,0-.25-.11-.25-.25s.11-.25,.25-.25h38.1c.14,0,.25,.11,.25,.25s-.11,.25-.25,.25Z" style="fill: rgb(38, 50, 56); transform-origin: 198.09px 456.04px;" id="ela8yxkuy0kew" class="animable"></path></g><path d="M395.26,442.2h-8.86c-.14,0-.25-.11-.25-.25s.11-.25,.25-.25h8.86c.14,0,.25,.11,.25,.25s-.11,.25-.25,.25Z" style="fill: rgb(38, 50, 56); transform-origin: 390.83px 441.95px;" id="el2z4zmmebbge" class="animable"></path></g></g><g id="freepik--Lines--inject-6" class="animable" style="transform-origin: 93.3px 178.7px;"><g id="elneb9119329" class="animable" style="transform-origin: 93.3px 178.7px;"><rect x="64.73" y="181.02" width="42.7" height=".5" style="fill: rgb(38, 50, 56); transform-origin: 86.08px 181.27px;" id="eltpuj3op550h" class="animable"></rect><rect x="79.17" y="175.88" width="42.7" height=".5" style="fill: rgb(38, 50, 56); transform-origin: 100.52px 176.13px;" id="eljzlxvb7c8ws" class="animable"></rect></g></g><g id="freepik--Boat--inject-6" class="animable" style="transform-origin: 269.383px 254.06px;"><g id="el3lvb35z548b" class="animable" style="transform-origin: 269.383px 254.06px;"><path d="M110.41,211.59l-.21-.46c10.4-4.75,24.32-13.31,41.39-25.43l.29,.41c-17.09,12.14-31.05,20.71-41.47,25.48Z" style="fill: rgb(38, 50, 56); transform-origin: 131.04px 198.645px;" id="elqwty78m37e9" class="animable"></path><polygon points="456.74 284.6 329.57 193.59 285.84 208.51 285.68 208.04 329.65 193.03 329.76 193.11 457.03 284.19 456.74 284.6" style="fill: rgb(38, 50, 56); transform-origin: 371.355px 238.815px;" id="el75km7t9kg3g" class="animable"></polygon><polygon points="289.36 222.85 225.92 208.36 121.01 212.84 120.99 212.34 225.97 207.86 226 207.87 289.47 222.36 289.36 222.85" style="fill: rgb(38, 50, 56); transform-origin: 205.23px 215.355px;" id="elqwphfe61z2" class="animable"></polygon><polygon points="328.97 167.16 320.3 381.43 329.64 381.43 330.77 167.16 328.97 167.16" style="fill: #00ADB5; transform-origin: 325.535px 274.295px;" id="elbzear63mpkt" class="animable"></polygon><polygon points="246.83 125.01 221.25 72.78 161.43 116.76 160.84 115.95 221.62 71.26 247.73 124.57 246.83 125.01" style="fill: rgb(38, 50, 56); transform-origin: 204.285px 98.135px;" id="el63a4oibu1if" class="animable"></polygon><path d="M159.21,374.49l-.33-.37c6.15-5.5,11.5-11.82,15.9-18.81l.42,.27c-4.42,7.02-9.81,13.38-15.99,18.91Z" style="fill: rgb(38, 50, 56); transform-origin: 167.04px 364.9px;" id="elk6oasgga4tg" class="animable"></path><path d="M86.12,357.21l-.48-.13c12.98-47.3,21.92-96.03,26.57-144.86l.5,.05c-4.65,48.85-13.6,97.62-26.58,144.94Z" style="fill: rgb(38, 50, 56); transform-origin: 99.175px 284.715px;" id="el95tuassn39" class="animable"></path><g id="el4ttwa0d9y1x"><rect x="41.41" y="293.73" width="133.37" height=".5" style="fill: rgb(38, 50, 56); transform-origin: 108.095px 293.98px; transform: rotate(-78.73deg);" class="animable" id="eln5rwxuskoy"></rect></g><polygon points="121 228.55 112.92 361.02 120.48 361.02 123.57 228.55 121 228.55" style="fill: #00ADB5; transform-origin: 118.245px 294.785px;" id="ellmroce5rq" class="animable"></polygon><g id="ele7u451aos0k"><path d="M119.22,257.78l3.65,.84s-.1,4.23-.1,4.24c0,0-3.81-.85-3.81-.85l.26-4.23Z" style="opacity: 0.2; transform-origin: 120.915px 260.32px;" class="animable" id="elhst9genqw2"></path></g><path d="M80.4,354.39c0,1.87,15.63,73.53,69.85,87.56l188.67-.13c3.97-3.97,12.62-43.48,16.36-53.29l4.67-2.34s-.84-13.4,6.37-16.37c7.21-2.97,16.12-5.94,16.76-14v-2.12l-78.91,21.21-13.79,15.27-74.46,4.03-16.97-22.7-36.91-2.97-11.88-10.18-69.77-3.97Z" style="fill: #00ADB5; transform-origin: 231.735px 397.825px;" id="elr2eld30gfpq" class="animable"></path><path d="M339.2,441.49c4.9-12.78,8.25-26.1,11.79-39.3,3.05-11.55,5.85-23.25,8.43-34.92l1.07-5.02c-2.03,13.56-5.15,26.92-8.54,40.2-3.64,13.19-7.11,26.55-12.75,39.05h0Z" style="fill: rgb(38, 50, 56); transform-origin: 349.845px 401.875px;" id="eljpmdwn1kzve" class="animable"></path><path d="M335.43,441.2c7.9-25.94,14.56-52.37,19.97-78.96-4.09,26.87-10.79,53.38-19.97,78.96h0Z" style="fill: rgb(38, 50, 56); transform-origin: 345.415px 401.72px;" id="eltjec4fk0ftq" class="animable"></path><g id="el5hw75upl1xs" class="animable" style="transform-origin: 116.7px 351.349px;"><path d="M82.96,346.13c17.53,1.05,35.06,2.09,52.59,3.14,4.96,.3,9.93,.59,14.89,.89,1.81,.11,1.8-2.71,0-2.81-17.53-1.05-35.06-2.09-52.59-3.14-4.96-.3-9.93-.59-14.89-.89-1.81-.11-1.8,2.71,0,2.81h0Z" style="fill: #00ADB5; transform-origin: 116.7px 346.74px;" id="ele3nokklyu84" class="animable"></path><path d="M95.7,345.9l-.2,8.85c-.02,.74,.66,1.44,1.41,1.41,.78-.03,1.39-.62,1.41-1.41,.07-2.95,.13-5.9,.2-8.85,.02-.74-.66-1.44-1.41-1.41-.78,.03-1.39,.62-1.41,1.41h0Z" style="fill: #00ADB5; transform-origin: 97.01px 350.325px;" id="el6ztvzwdtv3e" class="animable"></path><path d="M85.81,345.26c-.07,2.95-.13,5.9-.2,8.85-.02,.74,.66,1.44,1.41,1.41,.78-.03,1.39-.62,1.41-1.41l.2-8.85c.02-.74-.66-1.44-1.41-1.41-.78,.03-1.39,.62-1.41,1.41h0Z" style="fill: #00ADB5; transform-origin: 87.12px 349.685px;" id="el6l0ojxdx0e9" class="animable"></path><path d="M105.59,346.7l-.2,8.85c-.02,.74,.66,1.44,1.41,1.41,.78-.03,1.39-.62,1.41-1.41,.07-2.95,.13-5.9,.2-8.85,.02-.74-.66-1.44-1.41-1.41-.78,.03-1.39,.62-1.41,1.41h0Z" style="fill: #00ADB5; transform-origin: 106.9px 351.125px;" id="elbl29w5pwumv" class="animable"></path><path d="M115.48,347.51c-.07,2.95-.13,5.9-.2,8.85-.02,.74,.66,1.44,1.41,1.41,.78-.03,1.39-.62,1.41-1.41l.2-8.85c.02-.74-.66-1.44-1.41-1.41-.78,.03-1.39,.62-1.41,1.41h0Z" style="fill: #00ADB5; transform-origin: 116.79px 351.935px;" id="el4c7w86asaa2" class="animable"></path><path d="M125.36,348.31c-.07,2.95-.13,5.9-.2,8.85-.02,.74,.66,1.44,1.41,1.41,.78-.03,1.39-.62,1.41-1.41,.07-2.95,.13-5.9,.2-8.85,.02-.74-.66-1.44-1.41-1.41-.78,.03-1.39,.62-1.41,1.41h0Z" style="fill: #00ADB5; transform-origin: 126.67px 352.735px;" id="elzlqgoqs3kx" class="animable"></path><path d="M135.25,349.12l-.2,8.85c-.02,.74,.66,1.44,1.41,1.41,.78-.03,1.39-.62,1.41-1.41,.07-2.95,.13-5.9,.2-8.85,.02-.74-.66-1.44-1.41-1.41-.78,.03-1.39,.62-1.41,1.41h0Z" style="fill: #00ADB5; transform-origin: 136.56px 353.545px;" id="el5413cwigris" class="animable"></path><path d="M145.66,348.91l-.2,8.85c-.02,.74,.66,1.44,1.41,1.41,.78-.03,1.39-.62,1.41-1.41,.07-2.95,.13-5.9,.2-8.85,.02-.74-.66-1.44-1.41-1.41-.78,.03-1.39,.62-1.41,1.41h0Z" style="fill: #00ADB5; transform-origin: 146.97px 353.335px;" id="el6648v5v0fiu" class="animable"></path><g id="elu2vs91oecn"><g style="opacity: 0.3; transform-origin: 116.7px 351.349px;" class="animable" id="elxweeq6so7s"><path d="M82.96,346.13c17.53,1.05,35.06,2.09,52.59,3.14,4.96,.3,9.93,.59,14.89,.89,1.81,.11,1.8-2.71,0-2.81-17.53-1.05-35.06-2.09-52.59-3.14-4.96-.3-9.93-.59-14.89-.89-1.81-.11-1.8,2.71,0,2.81h0Z" id="eln57lzzf1r4d" class="animable" style="transform-origin: 116.7px 346.74px;"></path><path d="M95.7,345.9l-.2,8.85c-.02,.74,.66,1.44,1.41,1.41,.78-.03,1.39-.62,1.41-1.41,.07-2.95,.13-5.9,.2-8.85,.02-.74-.66-1.44-1.41-1.41-.78,.03-1.39,.62-1.41,1.41h0Z" id="elees0j3xi5c" class="animable" style="transform-origin: 97.01px 350.325px;"></path><path d="M85.81,345.26c-.07,2.95-.13,5.9-.2,8.85-.02,.74,.66,1.44,1.41,1.41,.78-.03,1.39-.62,1.41-1.41l.2-8.85c.02-.74-.66-1.44-1.41-1.41-.78,.03-1.39,.62-1.41,1.41h0Z" id="elzbzaqgo0w5" class="animable" style="transform-origin: 87.12px 349.685px;"></path><path d="M105.59,346.7l-.2,8.85c-.02,.74,.66,1.44,1.41,1.41,.78-.03,1.39-.62,1.41-1.41,.07-2.95,.13-5.9,.2-8.85,.02-.74-.66-1.44-1.41-1.41-.78,.03-1.39,.62-1.41,1.41h0Z" id="el4maxfsycmmi" class="animable" style="transform-origin: 106.9px 351.125px;"></path><path d="M115.48,347.51c-.07,2.95-.13,5.9-.2,8.85-.02,.74,.66,1.44,1.41,1.41,.78-.03,1.39-.62,1.41-1.41l.2-8.85c.02-.74-.66-1.44-1.41-1.41-.78,.03-1.39,.62-1.41,1.41h0Z" id="eluaw474p9uhl" class="animable" style="transform-origin: 116.79px 351.935px;"></path><path d="M125.36,348.31c-.07,2.95-.13,5.9-.2,8.85-.02,.74,.66,1.44,1.41,1.41,.78-.03,1.39-.62,1.41-1.41,.07-2.95,.13-5.9,.2-8.85,.02-.74-.66-1.44-1.41-1.41-.78,.03-1.39,.62-1.41,1.41h0Z" id="elqaj5mssgcv" class="animable" style="transform-origin: 126.67px 352.735px;"></path><path d="M135.25,349.12l-.2,8.85c-.02,.74,.66,1.44,1.41,1.41,.78-.03,1.39-.62,1.41-1.41,.07-2.95,.13-5.9,.2-8.85,.02-.74-.66-1.44-1.41-1.41-.78,.03-1.39,.62-1.41,1.41h0Z" id="eljpjaiwgsfon" class="animable" style="transform-origin: 136.56px 353.545px;"></path><path d="M145.66,348.91l-.2,8.85c-.02,.74,.66,1.44,1.41,1.41,.78-.03,1.39-.62,1.41-1.41,.07-2.95,.13-5.9,.2-8.85,.02-.74-.66-1.44-1.41-1.41-.78,.03-1.39,.62-1.41,1.41h0Z" id="elmfbz8ex1t8l" class="animable" style="transform-origin: 146.97px 353.335px;"></path></g></g></g><polygon points="223.94 66.17 220.14 66.17 220.14 398.65 231.75 398.65 223.94 66.17" style="fill: #00ADB5; transform-origin: 225.945px 232.41px;" id="el25vy9t69p14" class="animable"></polygon><path d="M127.09,212.59s62.95,92.15,47.31,143.61c0,0,21.14-19.99,75.26-19.14,54.12,.85,63.42,12.59,63.42,12.59,0,0-.09-114.13-22.41-126.32l-163.57-10.74Z" style="fill: rgb(38, 50, 56); transform-origin: 220.085px 284.395px;" id="elg7rtp0qrrus" class="animable"></path><g id="elkrwvfl7kq5"><path d="M128.18,214.22c.93,1.41,60.57,11.13,91.96,12.9,31.4,1.77,69.27-3.12,69.27-3.12l-161.24-9.78Z" style="opacity: 0.2; transform-origin: 208.79px 220.863px;" class="animable" id="elxsbffbkg7kh"></path></g><path d="M147.72,188.62s22.24-43.82,13.42-72.26c0,0,61.39-1.96,85.05,8.79,23.66,10.75,32.17,69.59,32.17,69.59,0,0-11.65-18.73-62.85-17.34-51.2,1.39-67.79,11.22-67.79,11.22Z" style="fill: rgb(38, 50, 56); transform-origin: 213.04px 155.48px;" id="elpbs61lvtrwr" class="animable"></path><g id="elv50j0jbflcf"><path d="M161.13,116.36s35.93,8.88,59.62,10.31c23.69,1.44,26.53-1.87,26.53-1.87,0,0-66.1-11.33-86.15-8.44Z" style="opacity: 0.3; transform-origin: 204.205px 121.461px;" class="animable" id="elmfaeczc45lh"></path></g><path d="M275.25,220.91l-.44-.24c3.34-5.97,7.24-15.45,2.58-28.78l.47-.17c4.72,13.52,.77,23.13-2.62,29.19Z" style="fill: rgb(38, 50, 56); transform-origin: 277.421px 206.315px;" id="elswe0p1k374" class="animable"></path><path d="M154.78,116.18c13.45-.04,26.9,.81,40.28,2.12,14.1,1.38,28.16,3.29,42.12,5.75,7.27,1.28,14.52,2.71,21.72,4.34,1.76,.4,2.52-2.31,.75-2.71-13.26-3.01-26.66-5.35-40.12-7.26-14.08-1.99-28.23-3.51-42.43-4.37-7.43-.45-14.88-.71-22.32-.69-1.81,0-1.81,2.82,0,2.81h0Z" style="fill: #00ADB5; transform-origin: 207.04px 120.895px;" id="elcftxnxk3hvm" class="animable"></path><path d="M122.19,221.29v5.41c0,.48,.75,.48,.75,0v-5.41c0-.48-.75-.48-.75,0h0Z" style="fill: #00ADB5; transform-origin: 122.565px 223.995px;" id="elpxvj3wjuml" class="animable"></path><path d="M125.34,228.03c0,1.53-1.24,2.77-2.77,2.77s-2.77-1.24-2.77-2.77,1.24-2.77,2.77-2.77,2.77,1.24,2.77,2.77Z" style="fill: #00ADB5; transform-origin: 122.57px 228.03px;" id="el1i3l28mb1lh" class="animable"></path><path d="M285.76,208.27c1.92,2.33,57.18,70.94,33,120,0,0,23.73-20.32,41.75-20.7,0,0,1.53,12.65-3.07,24.92,0,0,20.32-10.73,20.32-27.6s-18.03-82.98-49.29-89.5c-24.48-5.1-42.7-7.12-42.7-7.12Z" style="fill: rgb(38, 50, 56); transform-origin: 331.76px 270.38px;" id="el71ylitma2t5" class="animable"></path><g id="el7ia4hl998cl"><path d="M288.57,211.19s21.25,6.07,36.96,8.56c15.71,2.49,12.71-.94,12.71-.47s-44.27-8.25-49.67-8.09Z" style="opacity: 0.3; transform-origin: 313.52px 215.927px;" class="animable" id="el0624cbshjtjd"></path></g><path d="M282.75,210.65c14.63,1.68,29.18,3.77,43.62,6.66,4.5,.9,8.99,1.85,13.48,2.83,1.88,.41,2.69-2.48,.8-2.89-14.58-3.18-29.22-5.92-44.02-7.89-4.62-.61-9.25-1.17-13.88-1.7-1.91-.22-1.9,2.78,0,3h0Z" style="fill: #00ADB5; transform-origin: 311.524px 213.914px;" id="elhnl2qyzr5od" class="animable"></path><path d="M459.32,281.28c-1.24,.93-124.84,86.88-124.84,86.88l18.45-4.42,107.94-80.42-1.55-2.04Z" style="fill: #00ADB5; transform-origin: 397.675px 324.72px;" id="el8aa2hqwsgxg" class="animable"></path><path d="M328.32,367.84l-.38-.32c1.24-1.45,30.46-35.61,31.71-36.63l.31,.39c-.97,.79-21.12,24.26-31.64,36.56Z" style="fill: rgb(38, 50, 56); transform-origin: 343.95px 349.365px;" id="eljn2v991yq1s" class="animable"></path><path d="M241.4,393.87l-.09-.49c19.58-3.71,64.95-30.63,78.25-66.75l.47,.17c-7.67,20.84-24.78,36.72-37.78,46.37-16.2,12.03-32.19,19.07-40.85,20.71Z" style="fill: rgb(38, 50, 56); transform-origin: 280.67px 360.255px;" id="elamf584vg16" class="animable"></path><path d="M215.93,396.71c-.79,0-1.53-.37-2-1l-16.29-21.79-35.79-2.88c-.53-.04-1.03-.25-1.43-.59l-11.24-9.63-68.93-3.92c-1.38-.08-2.43-1.26-2.35-2.64,.08-1.38,1.27-2.44,2.64-2.35l69.77,3.97c.55,.03,1.07,.24,1.48,.6l11.26,9.65,36.1,2.9c.72,.06,1.37,.42,1.8,1l16.17,21.63,72.09-3.9,13.1-14.51c.33-.36,.75-.62,1.22-.74l79.99-21.13c1.33-.35,2.7,.44,3.06,1.78s-.44,2.7-1.78,3.06l-79.27,20.95-13.29,14.72c-.44,.49-1.06,.79-1.72,.82l-74.46,4.03s-.09,0-.14,0Z" style="fill: #00ADB5; transform-origin: 232.281px 374.019px;" id="el5l4qs44wii9" class="animable"></path><g id="elrgg4dn7du"><path d="M229.09,417.77c-4.07,0-7.42-3.05-7.89-6.99-.04,.32-.06,.64-.06,.97,0,4.4,3.56,7.96,7.96,7.96s7.96-3.56,7.96-7.96c0-.33-.03-.65-.06-.97-.48,3.94-3.83,6.99-7.89,6.99Z" style="opacity: 0.3; transform-origin: 229.1px 415.245px;" class="animable" id="elb1b1imb3mwd"></path></g><g id="elkwuc50eiqpp"><path d="M253.53,417.97c-4.07,0-7.42-3.05-7.89-6.99-.04,.32-.06,.64-.06,.97,0,4.4,3.56,7.96,7.96,7.96s7.96-3.56,7.96-7.96c0-.33-.03-.65-.06-.97-.48,3.94-3.83,6.99-7.89,6.99Z" style="opacity: 0.3; transform-origin: 253.54px 415.445px;" class="animable" id="elrwt3v47kgj"></path></g><g id="el3leet4k040t"><path d="M275.72,418.18c-4.07,0-7.42-3.05-7.89-6.99-.04,.32-.06,.64-.06,.97,0,4.4,3.56,7.96,7.96,7.96s7.96-3.56,7.96-7.96c0-.33-.03-.65-.06-.97-.48,3.94-3.83,6.99-7.89,6.99Z" style="opacity: 0.3; transform-origin: 275.73px 415.655px;" class="animable" id="el1zf8wmxhj2m"></path></g><g id="elfsmiz2ss97" class="animable" style="transform-origin: 252.405px 409.64px;"><g id="elkkr8kxnaf6"><circle cx="229.09" cy="409.64" r="7.17" style="fill: rgb(255, 255, 255); opacity: 0.6; transform-origin: 229.09px 409.64px;" class="animable" id="elknxqi66n3rr"></circle></g><g id="elxynbzt71wn"><circle cx="253.32" cy="409.64" r="7.17" style="fill: rgb(255, 255, 255); opacity: 0.6; transform-origin: 253.32px 409.64px;" class="animable" id="elpqz47y1qeo"></circle></g><g id="eld43gxbjy9n9"><circle cx="275.72" cy="409.64" r="7.17" style="fill: rgb(255, 255, 255); opacity: 0.6; transform-origin: 275.72px 409.64px;" class="animable" id="eljcjlhrhobln"></circle></g><path d="M229.09,418.31c-4.78,0-8.67-3.89-8.67-8.67s3.89-8.67,8.67-8.67,8.67,3.89,8.67,8.67-3.89,8.67-8.67,8.67Zm0-14.35c-3.13,0-5.67,2.54-5.67,5.67s2.54,5.67,5.67,5.67,5.67-2.54,5.67-5.67-2.55-5.67-5.67-5.67Z" style="fill: rgb(38, 50, 56); transform-origin: 229.09px 409.64px;" id="elb6y3z6ridvf" class="animable"></path><path d="M253.32,418.31c-4.78,0-8.67-3.89-8.67-8.67s3.89-8.67,8.67-8.67,8.67,3.89,8.67,8.67-3.89,8.67-8.67,8.67Zm0-14.35c-3.13,0-5.67,2.54-5.67,5.67s2.54,5.67,5.67,5.67,5.67-2.54,5.67-5.67-2.54-5.67-5.67-5.67Z" style="fill: rgb(38, 50, 56); transform-origin: 253.32px 409.64px;" id="elecjvjt0h49" class="animable"></path><path d="M275.72,418.31c-4.78,0-8.67-3.89-8.67-8.67s3.89-8.67,8.67-8.67,8.67,3.89,8.67,8.67-3.89,8.67-8.67,8.67Zm0-14.35c-3.13,0-5.67,2.54-5.67,5.67s2.54,5.67,5.67,5.67,5.67-2.54,5.67-5.67-2.54-5.67-5.67-5.67Z" style="fill: rgb(38, 50, 56); transform-origin: 275.72px 409.64px;" id="eln3y4sjpbmbe" class="animable"></path></g><g id="elm7yfzp8g5a"><path d="M215.93,396.71c-.79,0-1.53-.37-2-1l-16.29-21.79-35.79-2.88c-.53-.04-1.03-.25-1.43-.59l-11.24-9.63-68.93-3.92c-1.38-.08-2.43-1.26-2.35-2.64,.08-1.38,1.27-2.44,2.64-2.35l69.77,3.97c.55,.03,1.07,.24,1.48,.6l11.26,9.65,36.1,2.9c.72,.06,1.37,.42,1.8,1l16.17,21.63,72.09-3.9,13.1-14.51c.33-.36,.75-.62,1.22-.74l79.99-21.13c1.33-.35,2.7,.44,3.06,1.78s-.44,2.7-1.78,3.06l-79.27,20.95-13.29,14.72c-.44,.49-1.06,.79-1.72,.82l-74.46,4.03s-.09,0-.14,0Z" style="opacity: 0.3; transform-origin: 232.281px 374.019px;" class="animable" id="eli9vg6k14hj"></path></g><path d="M110.72,213.41c24.42,.85,48.8,2.46,73.16,4.2,24.61,1.76,49.22,3.69,73.85,5.2,13.53,.83,27.07,1.54,40.62,2.01,1.93,.07,1.93-2.93,0-3-24.42-.85-48.8-2.46-73.16-4.2s-49.22-3.69-73.85-5.2c-13.53-.83-27.07-1.54-40.62-2.01-1.93-.07-1.93,2.93,0,3h0Z" style="fill: #00ADB5; transform-origin: 204.535px 217.615px;" id="ells3invuwx1" class="animable"></path><g id="elcvxp811vpxn" class="animable" style="transform-origin: 342.899px 357.152px;"><path d="M305.84,364.51c19.47-5.14,38.93-10.29,58.4-15.43,5.51-1.46,11.03-2.91,16.54-4.37,2.01-.53,1.14-3.21-.86-2.68-19.47,5.14-38.93,10.29-58.4,15.43-5.51,1.46-11.03,2.91-16.54,4.37-2.01,.53-1.14,3.21,.86,2.68h0Z" style="fill: #00ADB5; transform-origin: 342.88px 353.27px;" id="el6ztragbfx8s" class="animable"></path><path d="M317.71,360.46c.84,2.83,1.67,5.66,2.51,8.49,.21,.71,1.07,1.17,1.77,.91,.73-.27,1.13-1.01,.91-1.77-.84-2.83-1.67-5.66-2.51-8.49-.21-.71-1.07-1.17-1.77-.91-.73,.27-1.13,1.01-.91,1.77h0Z" style="fill: #00ADB5; transform-origin: 320.305px 364.275px;" id="el5g2r9qoyvup" class="animable"></path><path d="M308.1,362.87c.84,2.83,1.67,5.66,2.51,8.49,.21,.71,1.07,1.17,1.77,.91,.73-.27,1.13-1.01,.91-1.77-.84-2.83-1.67-5.66-2.51-8.49-.21-.71-1.07-1.17-1.77-.91-.73,.27-1.13,1.01-.91,1.77h0Z" style="fill: #00ADB5; transform-origin: 310.695px 366.685px;" id="elrt00jzsj2l" class="animable"></path><path d="M327.37,358.2c.84,2.83,1.67,5.66,2.51,8.49,.21,.71,1.07,1.17,1.77,.91,.73-.27,1.13-1.01,.91-1.77-.84-2.83-1.67-5.66-2.51-8.49-.21-.71-1.07-1.17-1.77-.91-.73,.27-1.13,1.01-.91,1.77h0Z" style="fill: #00ADB5; transform-origin: 329.965px 362.015px;" id="el241cbw0frn5" class="animable"></path><path d="M337.03,355.95c.84,2.83,1.67,5.66,2.51,8.49,.21,.71,1.07,1.17,1.77,.91,.73-.27,1.13-1.01,.91-1.77-.84-2.83-1.67-5.66-2.51-8.49-.21-.71-1.07-1.17-1.77-.91-.73,.27-1.13,1.01-.91,1.77h0Z" style="fill: #00ADB5; transform-origin: 339.625px 359.765px;" id="elra172orre4" class="animable"></path><path d="M346.7,353.7c.84,2.83,1.67,5.66,2.51,8.49,.21,.71,1.07,1.17,1.77,.91,.73-.27,1.13-1.01,.91-1.77-.84-2.83-1.67-5.66-2.51-8.49-.21-.71-1.07-1.17-1.77-.91-.73,.27-1.13,1.01-.91,1.77h0Z" style="fill: #00ADB5; transform-origin: 349.295px 357.515px;" id="el9cz3h48rxh7" class="animable"></path><path d="M356.36,351.45c.84,2.83,1.67,5.66,2.51,8.49,.21,.71,1.07,1.17,1.77,.91,.73-.27,1.13-1.01,.91-1.77-.84-2.83-1.67-5.66-2.51-8.49-.21-.71-1.07-1.17-1.77-.91-.73,.27-1.13,1.01-.91,1.77h0Z" style="fill: #00ADB5; transform-origin: 358.955px 355.265px;" id="el8q2tuftfwn7" class="animable"></path><path d="M366.2,348.07c.84,2.83,1.67,5.66,2.51,8.49,.21,.71,1.07,1.17,1.77,.91,.73-.27,1.13-1.01,.91-1.77-.84-2.83-1.67-5.66-2.51-8.49-.21-.71-1.07-1.17-1.77-.91-.73,.27-1.13,1.01-.91,1.77h0Z" style="fill: #00ADB5; transform-origin: 368.795px 351.885px;" id="elwxkcw4omr0g" class="animable"></path><path d="M376.71,345.27l2.51,8.49c.21,.71,1.07,1.17,1.77,.91,.73-.27,1.13-1.01,.91-1.77-.84-2.83-1.67-5.66-2.51-8.49-.21-.71-1.07-1.17-1.77-.91-.73,.27-1.13,1.01-.91,1.77h0Z" style="fill: #00ADB5; transform-origin: 379.305px 349.085px;" id="eljc4kf6cmp7" class="animable"></path><g id="el2uvzhlg8n8l"><g style="opacity: 0.3; transform-origin: 342.894px 357.157px;" class="animable" id="el5t5p5pibr69"><path d="M305.84,364.51c19.46-5.14,38.91-10.28,58.37-15.42,5.51-1.46,11.02-2.91,16.53-4.37,2.01-.53,1.14-3.21-.86-2.68-19.46,5.14-38.91,10.28-58.37,15.42-5.51,1.46-11.02,2.91-16.53,4.37-2.01,.53-1.14,3.21,.86,2.68h0Z" id="elap8go861158" class="animable" style="transform-origin: 342.86px 353.275px;"></path><path d="M317.71,360.46c.84,2.83,1.67,5.66,2.51,8.49,.21,.71,1.07,1.17,1.77,.91,.73-.27,1.13-1.01,.91-1.77-.84-2.83-1.67-5.66-2.51-8.49-.21-.71-1.07-1.17-1.77-.91-.73,.27-1.13,1.01-.91,1.77h0Z" id="el4c7yt3hjawk" class="animable" style="transform-origin: 320.305px 364.275px;"></path><path d="M308.1,362.87c.84,2.83,1.67,5.66,2.51,8.49,.21,.71,1.07,1.17,1.77,.91,.73-.27,1.13-1.01,.91-1.77-.84-2.83-1.67-5.66-2.51-8.49-.21-.71-1.07-1.17-1.77-.91-.73,.27-1.13,1.01-.91,1.77h0Z" id="elm8fn6en93w" class="animable" style="transform-origin: 310.695px 366.685px;"></path><path d="M327.37,358.2c.84,2.83,1.67,5.66,2.51,8.49,.21,.71,1.07,1.17,1.77,.91,.73-.27,1.13-1.01,.91-1.77-.84-2.83-1.67-5.66-2.51-8.49-.21-.71-1.07-1.17-1.77-.91-.73,.27-1.13,1.01-.91,1.77h0Z" id="elm4zeson3m2" class="animable" style="transform-origin: 329.965px 362.015px;"></path><path d="M337.03,355.95c.84,2.83,1.67,5.66,2.51,8.49,.21,.71,1.07,1.17,1.77,.91,.73-.27,1.13-1.01,.91-1.77-.84-2.83-1.67-5.66-2.51-8.49-.21-.71-1.07-1.17-1.77-.91-.73,.27-1.13,1.01-.91,1.77h0Z" id="elatzj46rx2ei" class="animable" style="transform-origin: 339.625px 359.765px;"></path><path d="M346.7,353.7c.84,2.83,1.67,5.66,2.51,8.49,.21,.71,1.07,1.17,1.77,.91,.73-.27,1.13-1.01,.91-1.77-.84-2.83-1.67-5.66-2.51-8.49-.21-.71-1.07-1.17-1.77-.91-.73,.27-1.13,1.01-.91,1.77h0Z" id="elktg5xzxny1" class="animable" style="transform-origin: 349.295px 357.515px;"></path><path d="M356.36,351.45c.84,2.83,1.67,5.66,2.51,8.49,.21,.71,1.07,1.17,1.77,.91,.73-.27,1.13-1.01,.91-1.77-.84-2.83-1.67-5.66-2.51-8.49-.21-.71-1.07-1.17-1.77-.91-.73,.27-1.13,1.01-.91,1.77h0Z" id="elte5exngvlzb" class="animable" style="transform-origin: 358.955px 355.265px;"></path><path d="M366.2,348.07c.84,2.83,1.67,5.66,2.51,8.49,.21,.71,1.07,1.17,1.77,.91,.73-.27,1.13-1.01,.91-1.77-.84-2.83-1.67-5.66-2.51-8.49-.21-.71-1.07-1.17-1.77-.91-.73,.27-1.13,1.01-.91,1.77h0Z" id="elbdhekjoc1zq" class="animable" style="transform-origin: 368.795px 351.885px;"></path><path d="M376.7,345.26c.84,2.83,1.67,5.66,2.51,8.49,.21,.71,1.07,1.17,1.77,.91,.73-.27,1.13-1.01,.91-1.77l-2.51-8.49c-.21-.71-1.07-1.17-1.77-.91-.73,.27-1.13,1.01-.91,1.77h0Z" id="elnngx90x9g3f" class="animable" style="transform-origin: 379.295px 349.075px;"></path></g></g></g><g id="el7d8m9n7aeov"><path d="M83.63,362.68c23.01-.11,47.39,1.39,70.4,2.62-22.7,.13-47.66-1.43-70.4-2.62h0Z" style="opacity: 0.3; transform-origin: 118.83px 363.991px;" class="animable" id="elf86luknj8kr"></path></g><g id="elrg2w6gy5ba"><path d="M93.3,390.67c38.53,.35,81.34,1.48,119.87,3.14-38.56-.36-81.36-1.47-119.87-3.14h0Z" style="opacity: 0.3; transform-origin: 153.235px 392.24px;" class="animable" id="elw6bivj3asg"></path></g><g id="elsklxztim3hp"><path d="M290.34,392.03c19.37-.14,38.86,.39,58.2,1.59-19.38,.14-38.87-.39-58.2-1.59h0Z" style="opacity: 0.3; transform-origin: 319.44px 392.825px;" class="animable" id="eljo73ztmbus"></path></g><g id="el4hu2z82nhke"><path d="M115.28,421.45c72.13,.61,153.03,2.01,225.14,3.93-72.13-.6-153.03-2.02-225.14-3.93h0Z" style="opacity: 0.3; transform-origin: 227.85px 423.415px;" class="animable" id="el6op3hfovxx8"></path></g><path d="M135.37,355.74l-.45-.22c6.68-13.68,13.6-27.82,18.65-42.44,5.72-16.54,8.28-31.39,7.83-45.4l.5-.02c.45,14.07-2.12,28.98-7.86,45.58-5.07,14.66-11.99,28.81-18.68,42.5Z" style="fill: rgb(38, 50, 56); transform-origin: 148.435px 311.7px;" id="elap0o416qvjh" class="animable"></path><g id="ellx3lem7b7hd"><path d="M220.08,206.7s.2,1.65,0,1.66c-.2,0,1.35,1.91,4.29,1.65,2.94-.26,2.91-1.64,2.91-1.64,0,0,.13-2.4-.06-2.4s-7.14,.74-7.14,.74Z" style="opacity: 0.2; transform-origin: 223.693px 208.002px;" class="animable" id="el4ykzqucgd98"></path></g><g id="ele05a9lg71ni" class="animable" style="transform-origin: 222.995px 195.756px;"><path d="M208.66,186.05c0,1.81-.33,20.35,14.77,21.17,15.1,.82,14.28-21.17,14.28-21.17h-29.05Z" style="fill: #00ADB5; transform-origin: 223.189px 196.646px;" id="elu9ta8xh08uo" class="animable"></path><g id="ele6clr7lagas"><path d="M208.66,186.05c0,1.81-.33,20.35,14.77,21.17,15.1,.82,14.28-21.17,14.28-21.17h-29.05Z" style="opacity: 0.3; transform-origin: 223.189px 196.646px;" class="animable" id="el0upu3xrhnhdh"></path></g><path d="M237.9,187.56h-29.81c-.91,0-1.64-.74-1.64-1.65h0c0-.91,.74-1.64,1.64-1.64h29.81c.91,0,1.64,.74,1.64,1.64h0c0,.91-.74,1.65-1.64,1.65Z" style="fill: #00ADB5; transform-origin: 222.995px 185.915px;" id="ellu8caem9hud" class="animable"></path><g id="el73hfeqftakl"><path d="M237.9,187.56h-29.81c-.91,0-1.64-.74-1.64-1.65h0c0-.91,.74-1.64,1.64-1.64h29.81c.91,0,1.64,.74,1.64,1.64h0c0,.91-.74,1.65-1.64,1.65Z" style="opacity: 0.4; transform-origin: 222.995px 185.915px;" class="animable" id="eloaqzr5djtm"></path></g></g><g id="el1xrob8526f8"><polygon points="220.16 118.5 225.24 119.18 225.08 114.77 220.14 114.51 220.16 118.5" style="opacity: 0.3; transform-origin: 222.69px 116.845px;" class="animable" id="el2n1go101l8d"></polygon></g><g id="elclr5qu6xx5s"><polygon points="326.89 214.3 330.77 215.36 330.53 212.59 327.16 211.91 326.89 214.3" style="opacity: 0.3; transform-origin: 328.83px 213.635px;" class="animable" id="elwivrkxzp33r"></polygon></g><g id="el07qpdt33q0lw"><path d="M360.51,307.58s9.05-.77,10.95,4.12c1.9,4.89-13.81,20.28-13.61,19.66,.2-.62,2.38-7.87,2.64-12.74s.56-11.06,.02-11.04Z" style="opacity: 0.3; transform-origin: 364.734px 319.457px;" class="animable" id="elg8pkl0m216s"></path></g><path d="M93.3,254.8c.51,1.23,3.98,75.48-7.69,88.67l67.62-12.39s7.04-43.86-2.68-62.36l-3.35-.54-53.9-13.38Z" style="fill: rgb(38, 50, 56); transform-origin: 120.652px 299.135px;" id="eld05p4g9its7" class="animable"></path><path d="M86.35,253.04c17.01,3.93,33.95,8.18,50.8,12.75,4.83,1.31,9.64,2.65,14.45,4.01,1.4,.4,1.99-1.78,.6-2.17-16.8-4.76-33.69-9.2-50.66-13.31-4.86-1.18-9.73-2.33-14.6-3.45-1.41-.33-2.01,1.84-.6,2.17h0Z" style="fill: #00ADB5; transform-origin: 119.264px 260.342px;" id="el5examgashzx" class="animable"></path><g id="elqkcma26eo1k"><path d="M220.08,350.16s2.59-4.86,10.42-4.7l-.18-7.78-10.23,1.18v11.3Z" style="opacity: 0.3; transform-origin: 225.29px 343.92px;" class="animable" id="el5ow8cc47tdx"></path></g><g id="ely2jud6foqgq" class="animable" style="transform-origin: 253.545px 85.694px;"><path d="M271.88,78.25c-3.29-2.18-6.51-4.77-10.4-5.43-6.5-1.1-12.88,3.5-19.42,2.73-2.91-.34-5.57-1.71-8.34-2.65-2.77-.93-7.01-1.3-9.57,.11v.63c5.34,1.16,9.26,7.43,8.77,12.87-.49,5.45-4.82,7.34-7.85,11.89,8.78,1.14,19.19,2.05,26.66-2.69,3.01-1.91,5.84-4.28,9.3-5.12,3.36-.82,6.91-.08,10.33-.54,4.99-.68,9.53-4.08,11.58-8.69-3.82,.96-7.76-.94-11.05-3.12Z" style="fill: rgb(38, 50, 56); transform-origin: 253.545px 85.694px;" id="elyqj9vz1e8p" class="animable"></path><g id="el93x0s3aas6j"><g style="opacity: 0.3; transform-origin: 246.983px 81.1585px;" class="animable" id="elavpq74j4477"><path d="M247.89,75.09c.78,2.57,1.6,5.75,2.92,8.13,.34,.61,.71,1.23,.85,1.94,.14,.71-.04,1.56-.57,1.91-.77,.5-1.69-.29-2.33-1.03-2.1-2.45-5.23-7.36-6.5-10.5,0,0,1.34,.28,3.72-.13l1.9-.32Z" id="elistqrx29q0c" class="animable" style="transform-origin: 246.983px 81.1585px;"></path></g></g><g id="elci8kukm9fih"><g style="opacity: 0.3; transform-origin: 270.185px 86.1266px;" class="animable" id="el3ni0bchym5f"><path d="M274.63,89.2c-2.16-2.03-4.45-4.39-6.61-6.42-.52-.48-1.27-1-1.87-.61-.54,.36-.45,1.17-.27,1.8,.65,2.23,1.67,4.35,3,6.25,0,0,2.08-.05,3.07-.27,.99-.22,2.67-.76,2.67-.76Z" id="eltutybi6gtis" class="animable" style="transform-origin: 270.185px 86.1266px;"></path></g></g></g><g id="el1oaifpei0ic" class="animable" style="transform-origin: 351.45px 184.965px;"><path d="M364.55,179.83c-2.33-1.54-4.61-3.38-7.36-3.84-4.6-.78-9.11,2.47-13.74,1.93-2.06-.24-3.94-1.21-5.91-1.87-1.96-.66-4.96-.92-6.77,.08v.45c3.78,.82,6.55,5.26,6.2,9.11-.35,3.85-4.3,4.69-6.44,7.91,6.21,.81,14.47,1.96,19.76-1.4,2.13-1.35,4.14-3.03,6.58-3.62,2.38-.58,4.89-.06,7.31-.38,3.53-.48,6.75-2.89,8.19-6.15-2.71,.68-5.49-.66-7.82-2.2Z" style="fill: rgb(38, 50, 56); transform-origin: 351.45px 184.965px;" id="elb9elpdwnbe" class="animable"></path><g id="el5cga0ek9cem"><g style="opacity: 0.3; transform-origin: 346.926px 181.89px;" class="animable" id="elf9sh373pmoh"><path d="M347.57,177.6c.55,1.82,1.13,4.07,2.07,5.75,.24,.43,.5,.87,.6,1.37,.1,.5-.03,1.11-.41,1.35-.55,.35-1.2-.2-1.65-.73-1.48-1.73-3.7-5.21-4.6-7.43,0,0,.95,.2,2.64-.09l1.35-.22Z" id="eltzsgos0w42p" class="animable" style="transform-origin: 346.926px 181.89px;"></path></g></g><g id="elthee3snbkqg"><g style="opacity: 0.3; transform-origin: 363.355px 185.406px;" class="animable" id="el8n1vqadcdai"><path d="M366.5,187.58c-1.53-1.43-3.15-3.11-4.68-4.54-.37-.34-.9-.71-1.32-.43-.38,.25-.32,.83-.19,1.27,.46,1.58,1.18,3.08,2.12,4.42,0,0,1.47-.04,2.17-.19s1.89-.53,1.89-.53Z" id="elmvbfzw61mk" class="animable" style="transform-origin: 363.355px 185.406px;"></path></g></g></g><g id="elkwk6v6mci88"><g style="opacity: 0.3; transform-origin: 209.785px 156.93px;" class="animable" id="el8tzhp1sc7kd"><path d="M180.73,168.77c10.81-.14,22.68-.56,32.82-4.32,10.13-3.76,19.48-10.25,25.29-19.36-18.4,10.04-37.93,18-58.11,23.68Z" id="eloigu3pn0zcr" class="animable" style="transform-origin: 209.785px 156.93px;"></path></g></g><g id="elyz9zh1d69g" class="animable" style="transform-origin: 241.018px 282.295px;"><path d="M261.27,261.59c-.59-7.24-2.4-14.79-7.64-19.81-5.24-5.03-14.12-6.26-21.21-4.69l-3.26,.65c-6.99,2.23-14.67,5.02-18.03,11.54-2.09,4.05-2.08,8.83-1.79,13.38,.39,6.07,1.46,12.67,5.99,16.73,4.41,3.96,9.43,4.14,15.35,4.38,1.17,.88,1.14,4.46,2.01,6.32,.87,1.86,3.1,3.26,5,2.47,.95-.4,1.66-1.26,2.61-1.66,1.08-.46,2.33-.41,3.49-.24,2.95,.41,3.41-1.34,5.17-1.96,1.18-.42,2.57,.02,3.71-.48,.77-.33,1.63-.78,1.81-1.6,.22-1.02,.27-2.21-.15-3.16-.6-1.35-1.37-3.91-1.37-3.91,0,0,2.67-2.73,4.62-4.9,3.33-3.71,4.11-8.12,3.7-13.08Zm-27.39,9.83c-.28,3.28-3.22,6.14-6.73,6.39-2.57,.18-5.22-.99-6.87-2.91-1.65-1.92-2.3-4.51-1.85-6.88l.34-.99c1.62-3.03,5.72-4.63,9.26-3.6,3.54,1.03,6.13,4.57,5.84,7.99Zm11.33,11.2c-.52,.37-1.17,.37-1.72,.15-.55-.23-1.03-.65-1.47-1.12-.28,.95-.66,2.02-1.45,2.35-.75,.31-1.59-.26-1.94-1.09-.36-.83-.33-1.84-.19-2.79,.31-2.07,1.15-4.05,2.38-5.58l.09-.1c1.84,.37,3.51,1.65,4.54,3.49,.4,.72,.72,1.54,.73,2.42,.01,.88-.32,1.82-.97,2.28Zm5.74-9.82c-3.09,.52-6.44-1.47-7.5-4.59-.78-2.29-.34-4.97,1.03-6.91,1.37-1.95,3.6-3.15,5.89-3.31l1,.08c3.18,.75,5.64,4.09,5.54,7.55-.1,3.46-2.74,6.64-5.96,7.18Z" style="fill: rgb(255, 255, 255); transform-origin: 235.291px 264.618px;" id="el47b4mqehi9z" class="animable"></path><path d="M269.29,306.5c-1.73,.05-4.85,2.09-6.31,3.27l-.03,.16-42.49-9.8c.52-1.97,.26-4.31-.86-5.83-1.12-1.52-3.11-2-4.49-.87-1.38,1.14-1.77,3.89-.65,5.41-1.02,.16-.73-.08-1.65,.51-.92,.59-1.7,1.67-1.81,2.97-.19,2.18,1.63,3.95,3.36,4.02,1.73,.07,3.59-1.34,5.09-2.42l42.65,9.96c-.36,1.94,.01,4.13,1.14,5.52,1.18,1.45,3.19,1.79,4.52,.57,1.33-1.22,1.61-4,.43-5.44,1.02-.22,2.05-.48,2.95-1.13,.89-.65,1.63-1.78,1.69-3.08,.1-2.18-1.79-3.84-3.52-3.79Z" style="fill: rgb(255, 255, 255); transform-origin: 241.91px 306.761px;" id="el1kr4qt4nz6w" class="animable"></path><path d="M219.02,315.76c1.65-.54,5.27,.33,7.04,.95l.09,.14,36.69-23.57c-1.15-1.68-1.7-3.97-1.16-5.78,.54-1.81,2.25-2.93,3.93-2.33,1.68,.6,2.98,3.06,2.44,4.87,1.02-.2,.66-.32,1.72-.08,1.06,.25,2.17,1,2.71,2.18,.91,1.98-.2,4.27-1.81,4.92-1.61,.65-3.83-.05-5.61-.56l-36.78,23.77c.99,1.71,1.38,3.89,.79,5.58-.62,1.76-2.4,2.77-4.06,2.06s-2.86-3.22-2.24-4.98c-1.03,.13-2.09,.24-3.15-.07s-2.14-1.13-2.63-2.33c-.83-2.02,.39-4.22,2.03-4.76Z" style="fill: rgb(255, 255, 255); transform-origin: 244.765px 306.573px;" id="el1qo9msv76rk" class="animable"></path></g><g id="elranu50jkpz"><g style="opacity: 0.3; transform-origin: 123.57px 306.015px;" class="animable" id="el61vob9nh356"><path d="M99.93,317.81c8.79-.14,18.04-2.96,26.29-6.7,8.24-3.74,16.27-7.81,20.99-16.89-14.97,10-30.86,17.93-47.28,23.58Z" id="eloms13sroycf" class="animable" style="transform-origin: 123.57px 306.015px;"></path></g></g><g id="elndcwso56yp"><path d="M221.85,204.34s-.08,0-.11-.01c-4.79-1.11-8.74-5.27-9.62-10.1-.05-.27,.13-.53,.4-.58,.27-.05,.53,.13,.58,.4,.81,4.45,4.45,8.28,8.86,9.3,.27,.06,.44,.33,.37,.6-.05,.23-.26,.39-.49,.39Z" style="fill: rgb(255, 255, 255); opacity: 0.4; transform-origin: 217.229px 198.991px;" class="animable" id="elvg9nfcsyaaf"></path></g><g id="el6t7g9r42nmx"><path d="M211.37,191.13v.08c0,.1,.02,.2,.06,.29,.03,.09,.08,.17,.16,.24,.07,.07,.15,.12,.24,.16,.09,.05,.19,.07,.29,.06l.2-.03c.13-.04,.24-.1,.33-.19l.12-.15c.07-.12,.1-.24,.1-.38v-.08c0-.1-.02-.2-.06-.29-.03-.09-.08-.17-.16-.24-.07-.07-.15-.12-.24-.16-.09-.05-.19-.07-.29-.06l-.2,.03c-.13,.04-.24,.1-.33,.19l-.12,.15c-.07,.12-.1,.24-.1,.38h0Z" style="fill: rgb(255, 255, 255); opacity: 0.4; transform-origin: 212.12px 191.17px;" class="animable" id="eltsmipueakdp"></path></g><g id="eld6d65irenm"><path d="M226.93,230.86c-4.25,.02-6.42,5.09-3.51,8.18,13.47,14.34,44.1,42.72,62.34,45.52,17.44,2.67,16.9-5.35,14.76-20.97-2.14-15.63-6.86-31.51-11.11-32.32-3.22-.61-43.23-.5-62.48-.41Z" style="fill: rgb(255, 255, 255); opacity: 0.1; transform-origin: 261.835px 257.928px;" class="animable" id="elglzksift6kw"></path></g><g id="elyx9fhq18opq"><path d="M158.91,392.25c.68,9.71,.68,19.52,0,29.23-.68-9.71-.68-19.52,0-29.23h0Z" style="opacity: 0.3; transform-origin: 158.91px 406.865px;" class="animable" id="elsa7lu03t4jc"></path></g><g id="elacnbhsxlju"><path d="M132.07,364.88c.68,8.92,.68,17.95,0,26.87-.68-8.92-.68-17.95,0-26.87h0Z" style="opacity: 0.3; transform-origin: 132.07px 378.315px;" class="animable" id="elddvac4gp4ra"></path></g><g id="el5bsuodvdavw"><path d="M317.65,392.25c.68,9.71,.68,19.52,0,29.23-.68-9.71-.68-19.52,0-29.23h0Z" style="opacity: 0.3; transform-origin: 317.65px 406.865px;" class="animable" id="elhlchkbykyp"></path></g></g></g><defs>     <filter id="active" height="200%">         <feMorphology in="SourceAlpha" result="DILATED" operator="dilate" radius="2"></feMorphology>                <feFlood flood-color="#32DFEC" flood-opacity="1" result="PINK"></feFlood>        <feComposite in="PINK" in2="DILATED" operator="in" result="OUTLINE"></feComposite>        <feMerge>            <feMergeNode in="OUTLINE"></feMergeNode>            <feMergeNode in="SourceGraphic"></feMergeNode>        </feMerge>    </filter>    <filter id="hover" height="200%">        <feMorphology in="SourceAlpha" result="DILATED" operator="dilate" radius="2"></feMorphology>                <feFlood flood-color="#ff0000" flood-opacity="0.5" result="PINK"></feFlood>        <feComposite in="PINK" in2="DILATED" operator="in" result="OUTLINE"></feComposite>        <feMerge>            <feMergeNode in="OUTLINE"></feMergeNode>            <feMergeNode in="SourceGraphic"></feMergeNode>        </feMerge>            <feColorMatrix type="matrix" values="0   0   0   0   0                0   1   0   0   0                0   0   0   0   0                0   0   0   1   0 "></feColorMatrix>    </filter></defs></svg>